<?xml version="1.0"?>
<svg xmlns="http://www.w3.org/2000/svg" xmlns:xlink="http://www.w3.org/1999/xlink" viewBox="0 0 64 64" width="512" height="512"><linearGradient id="a" gradientUnits="userSpaceOnUse" x1="2" x2="61.926" y1="32" y2="32"><stop offset="0" stop-color="#4761ac"/><stop offset="1" stop-color="#54c2ef"/></linearGradient><linearGradient id="b" x2="61.926" xlink:href="#a" y1="32.5" y2="32.5"/><linearGradient id="c" x2="61.926" xlink:href="#a" y1="11" y2="11"/><linearGradient id="d" x2="61.926" xlink:href="#a" y1="3" y2="3"/><linearGradient id="e" x2="61.926" xlink:href="#a" y1="7" y2="7"/><linearGradient id="f" x2="61.926" xlink:href="#a" y1="5" y2="5"/><linearGradient id="g" x2="61.926" xlink:href="#a" y1="57" y2="57"/><linearGradient id="h" x2="61.926" xlink:href="#a" y1="53" y2="53"/><linearGradient id="i" x2="61.926" xlink:href="#a" y1="55" y2="55"/><linearGradient id="j" gradientTransform="matrix(.70710678 .70710678 -.70710678 .70710678 28 -11.598)" x2="61.926" xlink:href="#a" y1="28" y2="28"/><path d="m32 22a10 10 0 1 0 10 10 10.011 10.011 0 0 0 -10-10zm0 18a8 8 0 1 1 8-8 8.009 8.009 0 0 1 -8 8z" fill="url(#a)"/><path d="m32 18c-13.458 0-24 6.149-24 14a9.66 9.66 0 0 0 2.447 6.2 3.958 3.958 0 0 0 -.447 1.8 3.995 3.995 0 0 0 6.8 2.85 36.064 36.064 0 0 0 15.2 3.15c13.458 0 24-6.149 24-14s-10.542-14-24-14zm-18 24a2 2 0 1 1 2-2 2 2 0 0 1 -2 2zm18 2a34.18 34.18 0 0 1 -14.18-2.879 3.925 3.925 0 0 0 .18-1.121 4 4 0 0 0 -6.222-3.323 7.461 7.461 0 0 1 -1.778-4.677c0-6.617 9.869-12 22-12s22 5.383 22 12-9.869 12-22 12z" fill="url(#a)"/><path d="m45 13.024v-.024a3.994 3.994 0 0 0 -7.633-1.653 44.176 44.176 0 0 0 -5.367-.347c-16.542 0-30 9.2-30 20.5 0 10.554 11.832 19.4 27.091 20.4a4.98 4.98 0 0 0 9.864-.455c13.402-2.168 23.045-10.462 23.045-19.945 0-7.9-6.651-15.081-17-18.476zm-4-2.024a2 2 0 1 1 -2 2 2 2 0 0 1 2-2zm-7 43a3 3 0 1 1 3-3 3 3 0 0 1 -3 3zm4.727-4.557a4.979 4.979 0 0 0 -9.6.455c-14.16-.958-25.127-8.921-25.127-18.398 0-10.2 12.561-18.5 28-18.5a41.965 41.965 0 0 1 5.033.322 3.973 3.973 0 0 0 7.436 1.632c9.46 3.131 15.531 9.546 15.531 16.546 0 8.469-8.9 15.913-21.273 17.943z" fill="url(#b)"/><path d="m3 12a3 3 0 0 1 3 3 1 1 0 0 0 2 0 3 3 0 0 1 3-3 1 1 0 0 0 0-2 3 3 0 0 1 -3-3 1 1 0 0 0 -2 0 3 3 0 0 1 -3 3 1 1 0 0 0 0 2zm4-2a5.017 5.017 0 0 0 1 1 5.017 5.017 0 0 0 -1 1 5.017 5.017 0 0 0 -1-1 5.017 5.017 0 0 0 1-1z" fill="url(#c)"/><path d="m16 2h2v2h-2z" fill="url(#d)"/><path d="m16 6h2v2h-2z" fill="url(#e)"/><path d="m14 4h2v2h-2z" fill="url(#f)"/><path d="m18 4h2v2h-2z" fill="url(#f)"/><path d="m61 56a3 3 0 0 1 -3-3 1 1 0 0 0 -2 0 3 3 0 0 1 -3 3 1 1 0 0 0 0 2 3 3 0 0 1 3 3 1 1 0 0 0 2 0 3 3 0 0 1 3-3 1 1 0 0 0 0-2zm-4 2a5.017 5.017 0 0 0 -1-1 5.017 5.017 0 0 0 1-1 5.017 5.017 0 0 0 1 1 5.017 5.017 0 0 0 -1 1z" fill="url(#g)"/><path d="m46 52h2v2h-2z" fill="url(#h)"/><path d="m46 56h2v2h-2z" fill="url(#g)"/><path d="m48 54h2v2h-2z" fill="url(#i)"/><path d="m44 54h2v2h-2z" fill="url(#i)"/><path d="m26.586 27h2.828v2h-2.828z" fill="url(#j)" transform="matrix(.70710678 -.70710678 .70710678 .70710678 -11.598 28)"/></svg>
