<?xml version="1.0" encoding="utf-8"?>
<!-- Generator: Adobe Illustrator 22.1.0, SVG Export Plug-In . SVG Version: 6.00 Build 0)  -->
<svg version="1.1" id="Layer_1" xmlns="http://www.w3.org/2000/svg" xmlns:xlink="http://www.w3.org/1999/xlink" x="0px" y="0px"
	 viewBox="0 0 290.5 290.5" style="enable-background:new 0 0 290.5 290.5;" xml:space="preserve">
<style type="text/css">
	.st0{fill:#FFFFFF;}
</style>
<path class="st0" d="M168.7,103.1c-58.7,0-93.7,17.5-93.7,46.9c0,18.3,27.2,28.1,46.9,28.1c46.3,0,46.9-22.5,46.9-23.4l-9.4-0.1
	c0,0.1-1.4,14.2-37.5,14.2c-17,0-37.5-8.4-37.5-18.7c0-23.1,32.3-37.5,84.3-37.5c68.3,0,112.5,20.2,112.5,51.5
	c0,32.8-51,70.3-145.5,75l0.5,9.4c101.4-5.1,154.4-46.3,154.4-84.3C290.5,127,242.7,103.1,168.7,103.1z"/>
<path class="st0" d="M215.5,154.6c0-18.3-27.2-28.1-46.9-28.1c-46.3,0-46.9,22.5-46.9,23.4l9.4,0.1c0-0.1,1.4-14.2,37.5-14.2
	c17,0,37.5,8.4,37.5,18.7c0,23.1-32.3,37.5-84.3,37.5c-68.3,0-112.5-20.2-112.5-51.5c0-32.8,51-70.3,145.5-75l-0.5-9.4
	C53,61.3,0,102.5,0,140.6c0,37,47.8,60.9,121.8,60.9C180.5,201.5,215.5,184,215.5,154.6z"/>
<path class="st0" d="M51.5,107.8c0,7.8-6.3,14.1-14.1,14.1v9.4c7.8,0,14.1,6.3,14.1,14.1h9.4c0-7.8,6.3-14.1,14.1-14.1v-9.4
	c-7.8,0-14.1-6.3-14.1-14.1H51.5z M56.2,131.2c-1.3-1.8-2.9-3.4-4.7-4.7c1.8-1.3,3.4-2.9,4.7-4.7c1.3,1.8,2.9,3.4,4.7,4.7
	C59.1,127.8,57.6,129.4,56.2,131.2z"/>
<path class="st0" d="M239,187.4h9.4c0-10.3,8.4-18.7,18.7-18.7v-9.4c-10.3,0-18.7-8.4-18.7-18.7H239c0,10.3-8.4,18.7-18.7,18.7v9.4
	C230.6,168.7,239,177.1,239,187.4z M243.7,156.1c2.1,3.1,4.8,5.8,7.9,7.9c-3.1,2.1-5.8,4.8-7.9,7.9c-2.1-3.1-4.8-5.8-7.9-7.9
	C238.9,161.9,241.6,159.2,243.7,156.1z"/>
<path class="st0" d="M103.1,206.2h-9.4c0,10.3-8.4,18.7-18.7,18.7v9.4c10.3,0,18.7,8.4,18.7,18.7h9.4c0-10.3,8.4-18.7,18.7-18.7
	v-9.4C111.5,224.9,103.1,216.5,103.1,206.2z M98.4,237.5c-2.1-3.1-4.8-5.8-7.9-7.9c3.1-2.1,5.8-4.8,7.9-7.9c2.1,3.1,4.8,5.8,7.9,7.9
	C103.2,231.7,100.5,234.4,98.4,237.5z"/>
<path class="st0" d="M182.7,84.3h9.4c0-10.3,8.4-18.7,18.7-18.7v-9.4c-10.3,0-18.7-8.4-18.7-18.7h-9.4c0,10.3-8.4,18.7-18.7,18.7
	v9.4C174.3,65.6,182.7,74,182.7,84.3z M187.4,53c2.1,3.1,4.8,5.8,7.9,7.9c-3.1,2.1-5.8,4.8-7.9,7.9c-2.1-3.1-4.8-5.8-7.9-7.9
	C182.7,58.8,185.3,56.1,187.4,53z"/>
<rect x="98.4" y="135.9" class="st0" width="9.4" height="9.4"/>
<rect x="107.8" y="149.9" class="st0" width="9.4" height="9.4"/>
<rect x="168.7" y="168.7" class="st0" width="9.4" height="9.4"/>
<rect x="182.7" y="145.3" class="st0" width="9.4" height="9.4"/>
<rect x="215.5" y="187.4" class="st0" width="9.4" height="9.4"/>
<rect x="154.6" y="215.5" class="st0" width="9.4" height="9.4"/>
</svg>
