<?xml version="1.0" encoding="iso-8859-1"?>
<!-- Generator: Adobe Illustrator 19.0.0, SVG Export Plug-In . SVG Version: 6.00 Build 0)  -->
<svg xmlns="http://www.w3.org/2000/svg" xmlns:xlink="http://www.w3.org/1999/xlink" version="1.1" id="Layer_1" x="0px" y="0px" viewBox="0 0 511.998 511.998" style="enable-background:new 0 0 511.998 511.998;" xml:space="preserve" width="512px" height="512px">
<g>
	<g>
		<circle cx="156.123" cy="462.417" r="8.258" fill="#FFFFFF"/>
	</g>
</g>
<g>
	<g>
		<path d="M507.75,217.235c-1.866-6.855-3.629-13.33-3.629-19.11c0-5.78,1.763-12.255,3.628-19.11    c2.968-10.906,6.038-22.182,2.984-33.626c-3.009-11.271-11.233-19.468-19.185-27.396c-5.092-5.076-9.901-9.87-12.874-15.011    c-2.789-4.825-4.461-11.183-6.232-17.916c-2.766-10.52-5.901-22.444-14.481-31.023c-8.579-8.579-20.503-11.715-31.022-14.481    c-6.733-1.77-13.092-3.443-17.917-6.232c-5.141-2.973-9.936-7.782-15.011-12.874c-7.927-7.953-16.126-16.176-27.397-19.185    c-11.442-3.054-22.721,0.015-33.626,2.983c-6.856,1.866-13.331,3.629-19.112,3.629c-5.78,0-12.254-1.763-19.11-3.628    c-10.907-2.969-22.186-6.038-33.626-2.983c-11.269,3.008-19.466,11.232-27.393,19.184c-5.076,5.092-9.87,9.9-15.011,12.873    c-4.825,2.789-11.183,4.461-17.916,6.232c-10.52,2.766-22.444,5.901-31.023,14.481c-20.191,20.191-35.537,43.67-45.74,69.905    c-25.941,10.106-49.742,25.577-70.019,45.854c-8.579,8.579-11.715,20.503-14.481,31.023c-1.77,6.733-3.442,13.091-6.232,17.916    c-2.973,5.141-7.782,9.936-12.873,15.011c-7.953,7.927-16.176,16.126-19.185,27.396c-3.054,11.443,0.015,22.72,2.984,33.626    c1.865,6.856,3.628,13.331,3.628,19.11c0,5.78-1.763,12.255-3.629,19.112c-2.968,10.906-6.038,22.182-2.983,33.626    c3.009,11.271,11.233,19.469,19.185,27.397c5.092,5.076,9.901,9.87,12.873,15.011c2.79,4.825,4.461,11.183,6.232,17.916    c2.766,10.52,5.901,22.444,14.481,31.023c8.579,8.579,20.503,11.715,31.023,14.481c6.733,1.77,13.091,3.442,17.916,6.232    c5.141,2.973,9.936,7.782,15.011,12.873c7.927,7.953,16.126,16.176,27.397,19.185c3.112,0.831,6.47,1.252,9.981,1.252    c8.084,0,15.995-2.154,23.644-4.236c6.856-1.865,13.33-3.628,19.11-3.628c5.78,0,12.255,1.763,19.112,3.629    c7.65,2.082,15.56,4.235,23.646,4.236c3.558,0,6.823-0.41,9.979-1.252c11.271-3.009,19.469-11.233,27.398-19.185    c5.076-5.092,9.87-9.9,15.01-12.873c4.825-2.79,11.183-4.461,17.916-6.232c10.52-2.766,22.444-5.901,31.023-14.481    c20.577-20.577,35.811-44.501,45.729-70.03c25.53-9.918,49.455-25.152,70.032-45.729c8.579-8.579,11.715-20.503,14.481-31.023    c1.77-6.733,3.442-13.091,6.232-17.915c2.973-5.142,7.782-9.936,12.873-15.011c7.954-7.928,16.176-16.126,19.185-27.397    C513.789,239.419,510.719,228.142,507.75,217.235z M375.065,375.076c-65.599,22.567-141.327,7.725-193.593-44.541    c-21.487-21.488-37.558-48.104-46.475-76.97c-1.347-4.358-5.971-6.798-10.328-5.452c-4.358,1.347-6.799,5.97-5.452,10.328    c9.708,31.424,27.197,60.392,50.578,83.772c39.724,39.725,91.904,59.586,144.084,59.586c17.867,0,35.734-2.331,53.1-6.988    c-8.904,18.622-21.047,36.074-36.455,51.482c-5.421,5.42-14.224,7.736-23.545,10.187c-7.491,1.97-15.237,4.007-21.982,7.906    c-7.03,4.065-12.831,9.884-18.441,15.511c-6.678,6.699-12.985,13.027-19.96,14.889c-1.747,0.467-3.618,0.693-5.722,0.693    c-5.875,0-12.399-1.776-19.305-3.655c-7.602-2.069-15.462-4.208-23.45-4.208s-15.848,2.139-23.448,4.208    c-6.907,1.881-13.43,3.655-19.306,3.655c-2.103,0-3.975-0.227-5.722-0.693c-6.974-1.862-13.282-8.189-19.959-14.888    c-5.61-5.627-11.411-11.446-18.442-15.511c-6.745-3.9-14.492-5.937-21.982-7.906c-9.321-2.451-18.124-4.766-23.545-10.187    c-5.42-5.421-7.736-14.224-10.187-23.545c-1.97-7.491-4.007-15.237-7.906-21.982c-4.065-7.031-9.884-12.831-15.511-18.441    c-6.699-6.678-13.027-12.985-14.889-19.959c-1.906-7.141,0.459-15.829,2.963-25.028c2.069-7.601,4.208-15.461,4.208-23.448    c0-7.988-2.139-15.848-4.208-23.448c-2.504-9.199-4.869-17.887-2.963-25.028c1.862-6.974,8.189-13.282,14.888-19.959    c5.627-5.61,11.446-11.411,15.511-18.442c3.9-6.745,5.937-14.492,7.906-21.982c2.451-9.321,4.766-18.124,10.187-23.545    c15.218-15.218,32.6-27.486,51.444-36.534c-6.945,25.875-8.78,53.256-5.285,79.859c0.593,4.521,4.737,7.706,9.263,7.112    c4.521-0.595,7.706-4.741,7.112-9.263c-3.876-29.5-0.802-58.726,8.553-85.781c19.464-6.725,40.12-10.237,61.32-10.237    c50.016,0,97.038,19.477,132.405,54.844C382.789,233.749,397.631,309.476,375.065,375.076z M494.778,246.602    c-1.862,6.974-8.189,13.282-14.889,19.96c-5.627,5.61-11.446,11.41-15.511,18.441c-3.9,6.745-5.937,14.492-7.906,21.982    c-2.451,9.321-4.766,18.124-10.187,23.545c-15.408,15.408-32.859,27.55-51.485,36.455c18.259-68.086,0.729-143.858-52.598-197.184    c-38.486-38.486-89.656-59.682-144.084-59.682c-18.208,0-36.047,2.385-53.174,6.983c9.033-18.764,21.283-36.138,36.527-51.382    c5.421-5.42,14.224-7.736,23.545-10.187c7.491-1.97,15.237-4.007,21.982-7.906c7.031-4.065,12.831-9.884,18.442-15.511    c6.678-6.699,12.984-13.026,19.959-14.888c7.142-1.904,15.829,0.459,25.028,2.962c7.6,2.069,15.461,4.208,23.447,4.208    c7.988,0,15.848-2.139,23.448-4.208c9.198-2.504,17.887-4.87,25.028-2.963c6.974,1.862,13.282,8.189,19.96,14.889    c5.61,5.627,11.41,11.446,18.441,15.511c6.745,3.9,14.492,5.938,21.983,7.908c9.32,2.451,18.124,4.765,23.544,10.186    c5.42,5.421,7.736,14.224,10.187,23.545c1.97,7.491,4.007,15.237,7.906,21.982c4.065,7.031,9.884,12.831,15.511,18.442    c6.699,6.678,13.026,12.985,14.888,19.959c1.906,7.141-0.459,15.829-2.963,25.028c-2.069,7.601-4.208,15.461-4.208,23.448    s2.139,15.847,4.208,23.448C494.318,230.772,496.683,239.461,494.778,246.602z" fill="#FFFFFF"/>
	</g>
</g>
<g>
	<g>
		<path d="M308.549,203.455c-14.037-14.037-32.7-21.768-52.551-21.768c-19.85,0-38.515,7.73-52.551,21.768    c-14.037,14.037-21.768,32.7-21.768,52.551c0,19.85,7.73,38.515,21.768,52.551c14.036,14.037,32.699,21.768,52.551,21.768    s38.515-7.73,52.551-21.768c14.037-14.037,21.768-32.7,21.768-52.551C330.317,236.155,322.587,217.491,308.549,203.455z     M296.871,296.879c-10.918,10.918-25.434,16.93-40.873,16.93s-29.955-6.013-40.873-16.93s-16.93-25.434-16.93-40.873    c0-15.44,6.013-29.955,16.93-40.873s25.434-16.93,40.873-16.93s29.956,6.013,40.873,16.93    c10.918,10.918,16.93,25.434,16.93,40.873C313.802,271.445,307.789,285.961,296.871,296.879z" fill="#FFFFFF"/>
	</g>
</g>
<g>
	<g>
		<circle cx="462.416" cy="156.146" r="8.258" fill="#FFFFFF"/>
	</g>
</g>
<g>
	<g>
		<circle cx="429.386" cy="123.116" r="8.258" fill="#FFFFFF"/>
	</g>
</g>
<g>
	<g>
		<circle cx="271.885" cy="49.601" r="8.258" fill="#FFFFFF"/>
	</g>
</g>
<g>
	<g>
		<circle cx="429.386" cy="240.11" r="8.258" fill="#FFFFFF"/>
	</g>
</g>
<g>
</g>
<g>
</g>
<g>
</g>
<g>
</g>
<g>
</g>
<g>
</g>
<g>
</g>
<g>
</g>
<g>
</g>
<g>
</g>
<g>
</g>
<g>
</g>
<g>
</g>
<g>
</g>
<g>
</g>
</svg>
